<svg width="18.000000" height="18.000000" viewBox="0 0 18 18" fill="none" xmlns="http://www.w3.org/2000/svg" xmlns:xlink="http://www.w3.org/1999/xlink">
	<desc>
			Created with Pixso.
	</desc>
	<defs/>
	<path id="Vector" d="M5.41797 8.09964C5.24023 8.09964 5.06641 8.15244 4.91797 8.25131C4.77148 8.35019 4.65625 8.49075 4.58789 8.65521C4.51953 8.81964 4.50195 9.00061 4.53711 9.17517C4.57031 9.34976 4.65625 9.5101 4.7832 9.63596C4.9082 9.76184 5.06836 9.84753 5.24219 9.88226C5.41602 9.91699 5.59766 9.89917 5.76172 9.83105C5.92578 9.76294 6.06641 9.64758 6.16406 9.4996C6.26367 9.35159 6.31641 9.17761 6.31641 8.9996C6.31641 8.76093 6.22266 8.53201 6.05273 8.36322C5.88477 8.19446 5.65625 8.09964 5.41797 8.09964ZM9.01172 8.09964C8.83398 8.09964 8.66211 8.15244 8.51367 8.25131C8.36523 8.35019 8.25 8.49075 8.18164 8.65521C8.11523 8.81964 8.0957 9.00061 8.13086 9.17517C8.16602 9.34976 8.25195 9.5101 8.37695 9.63596C8.50195 9.76184 8.66211 9.84753 8.83789 9.88226C9.01172 9.91699 9.19141 9.89917 9.35742 9.83105C9.52148 9.76294 9.66211 9.64758 9.75977 9.4996C9.85938 9.35159 9.91211 9.17761 9.91211 8.9996C9.91211 8.76093 9.81641 8.53201 9.64844 8.36322C9.48047 8.19446 9.25195 8.09964 9.01172 8.09964ZM12.6074 8.09964C12.4297 8.09964 12.2559 8.15244 12.1074 8.25131C11.9609 8.35019 11.8457 8.49075 11.7773 8.65521C11.709 8.81964 11.6914 9.00061 11.7266 9.17517C11.7617 9.34976 11.8457 9.5101 11.9727 9.63596C12.0977 9.76184 12.2578 9.84753 12.4316 9.88226C12.6074 9.91699 12.7871 9.89917 12.9512 9.83105C13.1152 9.76294 13.2559 9.64758 13.3555 9.4996C13.4531 9.35159 13.5059 9.17761 13.5059 8.9996C13.5059 8.76093 13.4121 8.53201 13.2422 8.36322C13.0742 8.19446 12.8457 8.09964 12.6074 8.09964ZM9.01172 0C7.83203 0 6.66406 0.232788 5.57422 0.685059C4.48242 1.13733 3.49219 1.80023 2.6582 2.63593C0.972656 4.32367 0.0253906 6.61276 0.0253906 8.9996C0.0175781 11.0777 0.736328 13.0931 2.05664 14.6964L0.259766 16.4963C0.134766 16.6228 0.0507812 16.7835 0.015625 16.9581C-0.0175781 17.1327 0.00195312 17.3133 0.0703125 17.4772C0.144531 17.6392 0.265625 17.7752 0.417969 17.8682C0.570312 17.9611 0.746094 18.0067 0.923828 17.9992L9.01172 17.9992C11.3965 17.9992 13.6816 17.051 15.3672 15.3633C17.0527 13.6755 18 11.3864 18 8.9996C18 6.61276 17.0527 4.32367 15.3672 2.63593C13.6816 0.948181 11.3965 0 9.01172 0ZM9.01172 16.1993L3.08984 16.1993L3.92578 15.3623C4.09375 15.1937 4.1875 14.9656 4.1875 14.7278C4.1875 14.4901 4.09375 14.262 3.92578 14.0934C2.74805 12.9163 2.01562 11.367 1.85156 9.70947C1.6875 8.052 2.10352 6.38882 3.02734 5.00336C3.94922 3.61789 5.32422 2.59579 6.91602 2.11127C8.50781 1.62677 10.2168 1.70975 11.7539 2.34613C13.291 2.98248 14.5605 4.13287 15.3457 5.60126C16.1309 7.06964 16.3828 8.7652 16.0605 10.399C15.7363 12.0329 14.8574 13.5039 13.5723 14.5616C12.2871 15.6192 10.6758 16.198 9.01172 16.1993Z" fill="#94A3BD" fill-opacity="1.000000" fill-rule="nonzero"/>
</svg>
